<svg xmlns="http://www.w3.org/2000/svg" width="24" height="24" fill="none" xmlns:v="https://vecta.io/nano"><path fill-rule="evenodd" d="M12 2C6.48 2 2 6.48 2 12s4.48 10 10 10 10-4.48 10-10S17.52 2 12 2zM7.07 18.28c.43-.9 3.05-1.78 4.93-1.78s4.5.88 4.93 1.78C15.57 19.36 13.86 20 12 20s-3.57-.64-4.93-1.72zm11.3-1.45c-1.43-1.74-4.9-2.33-6.36-2.33s-4.93.6-6.36 2.33A7.95 7.95 0 0 1 4 12c0-4.4 3.6-8 8-8s8 3.6 8 8a7.95 7.95 0 0 1-1.64 4.83zM12 6a3.49 3.49 0 0 0-3.5 3.5A3.49 3.49 0 0 0 12 13a3.49 3.49 0 0 0 3.5-3.5A3.49 3.49 0 0 0 12 6zm0 5a1.5 1.5 0 1 1 0-3 1.5 1.5 0 1 1 0 3z" fill="#fff"/></svg>