<svg xmlns="http://www.w3.org/2000/svg" width="22" height="17" fill="none" xmlns:v="https://vecta.io/nano"><path d="M21.46 2.012a8.58 8.58 0 0 1-2.465.676c.886-.53 1.567-1.372 1.887-2.374a8.59 8.59 0 0 1-2.725 1.041C17.373.52 16.258 0 15.024 0c-2.37 0-4.292 1.92-4.292 4.292 0 .336.038.664.11.978-3.567-.18-6.73-1.888-8.846-4.484a4.27 4.27 0 0 0-.581 2.158 4.29 4.29 0 0 0 1.909 3.572C2.622 6.493 1.96 6.3 1.38 5.978v.054c0 2.08 1.48 3.814 3.443 4.208-.36.098-.74.15-1.13.15-.277 0-.545-.027-.807-.077.546 1.705 2.13 2.946 4.01 2.98a8.61 8.61 0 0 1-5.33 1.837c-.346 0-.688-.02-1.024-.06C2.44 16.29 4.696 17 7.12 17c7.894 0 12.21-6.54 12.21-12.21 0-.186-.004-.37-.013-.555a8.72 8.72 0 0 0 2.142-2.222z" fill="#fff"/></svg>